<svg aria-hidden="true" style="position: absolute; width: 0; height: 0; overflow: hidden;" version="1.1" xmlns="http://www.w3.org/2000/svg" xmlns:xlink="http://www.w3.org/1999/xlink">
<defs>
<symbol id="icon-search" viewBox="0 0 24 24">
<path d="M9.516 14.016q1.875 0 3.188-1.313t1.313-3.188-1.313-3.188-3.188-1.313-3.188 1.313-1.313 3.188 1.313 3.188 3.188 1.313zM15.516 14.016l4.969 4.969-1.5 1.5-4.969-4.969v-0.797l-0.281-0.281q-1.781 1.547-4.219 1.547-2.719 0-4.617-1.875t-1.898-4.594 1.898-4.617 4.617-1.898 4.594 1.898 1.875 4.617q0 0.984-0.469 2.227t-1.078 1.992l0.281 0.281h0.797z"></path>
</symbol>
<symbol id="icon-fitness_center" viewBox="0 0 24 24">
<path d="M20.578 14.859l1.406 1.453-2.109 2.109 1.406 1.453-1.406 1.406-1.453-1.406-2.109 2.109-1.453-1.406-1.406 1.406-1.453-1.406 3.563-3.563-8.578-8.578-3.563 3.563-1.406-1.453 1.406-1.406-1.406-1.453 2.109-2.109-1.406-1.453 1.406-1.406 1.453 1.406 2.109-2.109 1.453 1.406 1.406-1.406 1.453 1.406-3.563 3.563 8.578 8.578 3.563-3.563 1.406 1.453z"></path>
</symbol>
<symbol id="icon-stairs" viewBox="0 0 24 24">
<path d="M18.984 3h-13.969q-0.844 0-1.43 0.586t-0.586 1.43v13.969q0 0.844 0.586 1.43t1.43 0.586h13.969q0.844 0 1.43-0.586t0.586-1.43v-13.969q0-0.844-0.586-1.43t-1.43-0.586zM18 8.016h-2.438v3.328h-2.578v3.328h-2.578v3.328h-4.406v-2.016h2.438v-3.328h2.578v-3.328h2.578v-3.328h4.406v2.016z"></path>
</symbol>
<symbol id="icon-directions_run" viewBox="0 0 24 24">
<path d="M9.891 19.359l-6.984-1.359 0.375-2.016 4.922 0.984 1.594-8.109-1.828 0.703v3.422h-1.969v-4.688l5.203-2.203q0.141 0 0.398-0.047t0.398-0.047q0.984 0 1.688 0.984l0.984 1.594q1.359 2.391 4.313 2.391v2.016q-3.328 0-5.484-2.484l-0.609 3 2.109 1.969v7.5h-2.016v-6l-2.109-1.969zM13.5 5.484q-0.797 0-1.406-0.609t-0.609-1.406 0.609-1.383 1.406-0.586 1.383 0.586 0.586 1.383-0.586 1.406-1.383 0.609z"></path>
</symbol>
<symbol id="icon-directions_bike" viewBox="0 0 24 24">
<path d="M18.984 20.484q1.453 0 2.484-1.008t1.031-2.461-1.031-2.484-2.484-1.031-2.461 1.031-1.008 2.484 1.008 2.461 2.461 1.008zM18.984 12q2.109 0 3.563 1.453t1.453 3.563-1.453 3.539-3.563 1.43-3.539-1.43-1.43-3.539 1.43-3.563 3.539-1.453zM10.781 10.5l2.203 2.297v6.188h-1.969v-4.969l-3.234-2.813q-0.563-0.375-0.563-1.406 0-0.844 0.563-1.406l2.813-2.813q0.375-0.563 1.406-0.563 0.891 0 1.594 0.563l1.922 1.922q1.5 1.5 3.563 1.5v2.016q-2.953 0-5.063-2.109l-0.797-0.797zM5.016 20.484q1.453 0 2.461-1.008t1.008-2.461-1.008-2.484-2.461-1.031-2.484 1.031-1.031 2.484 1.031 2.461 2.484 1.008zM5.016 12q2.109 0 3.539 1.453t1.43 3.563-1.43 3.539-3.539 1.43-3.563-1.43-1.453-3.539 1.453-3.563 3.563-1.453zM15.516 5.484q-0.797 0-1.406-0.586t-0.609-1.383 0.609-1.406 1.406-0.609 1.383 0.609 0.586 1.406-0.586 1.383-1.383 0.586z"></path>
</symbol>
</defs>
</svg>
